<?xml version="1.0" encoding="utf-8"?>
<!-- Generator: Adobe Illustrator 19.2.1, SVG Export Plug-In . SVG Version: 6.00 Build 0)  -->
<svg version="1.1" id="layer" xmlns="http://www.w3.org/2000/svg" xmlns:xlink="http://www.w3.org/1999/xlink" x="0px" y="0px"
	 viewBox="0 0 652 652" style="enable-background:new 0 0 652 652;" xml:space="preserve">
<style type="text/css">
	.st0{fill:#FFB718;}
	.st1{fill:#0074C8;}
</style>
<g>
	<g>
		<path d="M364.2,256.8h-5.6c-1.7,0-3.1,1.4-3.1,3.1v70.7c0,17.3-3.1,30-9.2,38.1c-6.1,8.1-14.2,12.1-27.7,12.1
			c-10.4,0-18.3-3.9-23.5-11.8c-5.2-7.9-7.9-18.7-8-32.4l-0.2-53.9c0-4.9-0.3-9-0.8-12.3c-0.5-3.3-1.5-6-2.9-7.9
			c-1.4-2-3.2-3.4-5.6-4.3c-2.3-0.9-5.2-1.3-8.6-1.3h-18.7c-1.7,0-3.1,1.4-3.1,3.1c0,1.6,1.2,2.9,2.7,3c4.4,0.5,7.3,2.3,8.7,5.3
			c1.7,3.6,2.5,8.4,2.5,14.4v48c0,39.4,17.8,59.1,53.5,59.1c9.6,0,17.8-1.3,24.5-4c6.7-2.6,12.1-6.5,16.3-11.6
			c4.2-5.1,7.2-11.3,9-18.5c1.8-7.3,2.8-15.6,2.8-25v-70.7C367.3,258.2,365.9,256.8,364.2,256.8"/>
	</g>
</g>
<g>
	<g>
		<path d="M458.4,320.1l-24.4-14.5c-3.2-1.8-6-3.6-8.5-5.4c-2.5-1.7-4.7-3.5-6.4-5.4c-1.8-1.8-3.2-3.9-4.2-6c-1-2.2-1.5-4.7-1.5-7.4
			c0-5.9,2.1-10.6,6.2-14.1c4.1-3.4,9.7-5.2,16.8-5.2c10,0,18.1,2.9,24.2,8.7c5.8,5.4,9.8,14.3,12.1,26.7c0.3,1.5,1.6,2.7,3.2,2.7h0
			c1.8,0,3.2-1.4,3.2-3.2v-20c0-3.7-1.3-7-4-10c-2.6-3-6.1-5.5-10.3-7.5c-4.2-2-9-3.6-14.4-4.7c-5.4-1.1-10.7-1.6-16.2-1.6
			c-13.6,0-24.4,3-32.4,9.1c-8,6.1-12,14.3-12,24.8c0,7.3,1.9,13.7,5.6,19.2c3.7,5.6,10,11,19,16.3l24.4,14.7
			c6.4,3.8,11.3,7.6,15,11.4c3.6,3.8,5.5,8.5,5.5,14.2c0,6.3-2.3,11.1-6.8,14.4c-4.5,3.2-10.5,4.9-18,4.9c-11,0-19.7-2.9-26.1-8.7
			c-5.9-5.4-10-14.3-12.3-26.6c-0.3-1.6-1.6-2.7-3.2-2.7c-1.8,0-3.2,1.4-3.2,3.2v20c0,3.7,1.3,7,4,10c2.6,3,6.1,5.5,10.3,7.5
			c4.2,2.1,9,3.6,14.4,4.7c5.4,1.1,10.7,1.6,16.2,1.6c16,0,28.3-3.3,36.9-9.9c8.6-6.6,12.9-15.6,12.9-27c0-7.3-2.1-13.4-6.2-18.5
			C474,330.6,467.4,325.4,458.4,320.1"/>
		<path d="M619.3,358l-1.6-1.2c-1.5-1.2-3.8-0.8-4.8,0.9c-4.5,7.7-10.2,13.6-17.1,17.9c-7.8,4.8-16.3,7.2-25.4,7.2
			c-7.9,0-14.6-1.6-20.1-4.9c-5.5-3.2-10-7.6-13.5-13c-3.5-5.4-6.1-11.7-7.6-18.7s-2.4-14.4-2.4-21.9c0-12,1.1-22,3.4-30
			c2.2-8,5.4-14.4,9.3-19.2c4-4.8,8.6-8.2,13.9-10.2c5.3-2,11-3,17-3c11,0,19.8,3.2,26.5,9.6c6.2,6,10.6,14.3,13.2,25.1
			c0.4,1.5,1.7,2.6,3.2,2.6c1.8,0,3.3-1.5,3.3-3.3c-0.1-4.6-0.3-9.1-0.6-13.5c-0.4-5.4-1.9-9.9-4.6-13.3c-3.7-4.2-9.4-8-17-11.2
			c-7.6-3.2-17.6-4.9-30-4.9c-9.4,0-18.1,1.8-26.1,5.6c-8,3.7-14.9,8.8-20.7,15.2c-5.8,6.4-10.4,13.9-13.7,22.6
			c-3.3,8.7-5,18-5,28.1c0,9.5,1.5,18.4,4.4,26.6c2.9,8.2,7.1,15.3,12.7,21.4c5.6,6.1,12.4,10.8,20.5,14.3
			c8.1,3.4,17.4,5.2,27.9,5.2c13.9,0,25.3-2.6,34.3-7.7c8.3-4.8,15.4-12,21.3-21.7C621,360.8,620.6,359,619.3,358"/>
	</g>
</g>
<g>
	<g>
		<g>
			<polygon class="st0" points="132.7,382.6 132.7,258.9 133.8,258.9 155.5,314.8 200.3,281.6 183.9,338.6 241.8,339.7 200.8,375.1 
				244.7,389.6 103.5,389.6 			"/>
		</g>
		<polygon class="st1" points="20.6,258.9 20.6,389.7 70.9,375.2 23.5,339.7 83.4,338.7 65.1,281.7 111.2,314.8 132.7,260.2 
			132.7,258.9 		"/>
	</g>
</g>
</svg>
