<?xml version="1.0" standalone="no"?>
<!DOCTYPE svg PUBLIC "-//W3C//DTD SVG 20010904//EN"
 "http://www.w3.org/TR/2001/REC-SVG-20010904/DTD/svg10.dtd">
<svg version="1.0" xmlns="http://www.w3.org/2000/svg"
 width="1236.000000pt" height="500.000000pt" viewBox="0 0 1236.000000 500.000000"
 preserveAspectRatio="xMidYMid meet">
<metadata>
Created by potrace 1.16, written by Peter Selinger 2001-2019
</metadata>
<g transform="translate(0.000000,500.000000) scale(0.100000,-0.100000)"
fill="#000000" stroke="none">
<path d="M2695 3716 c-15 -23 -21 -53 -25 -130 -6 -109 -11 -123 -75 -206 -79
-102 -95 -162 -69 -250 17 -57 33 -73 68 -64 22 5 25 10 18 33 -4 14 -7 53 -7
87 1 75 29 135 118 253 l64 84 -29 63 c-16 35 -33 85 -37 111 l-7 48 -19 -29z"/>
<path d="M2110 3682 c-19 -11 -44 -35 -55 -55 l-19 -35 105 -274 c87 -223 109
-273 125 -273 33 0 27 -31 -11 -53 -44 -26 -60 -65 -44 -103 14 -34 7 -46 -31
-54 -55 -12 -78 -79 -45 -129 14 -21 14 -25 -4 -48 -35 -44 -35 -70 -2 -112
l31 -38 -25 -30 c-35 -41 -32 -72 10 -115 33 -34 34 -38 20 -59 -33 -51 -11
-103 58 -132 25 -11 27 -16 22 -46 -4 -19 -4 -44 0 -55 9 -28 56 -52 97 -49
29 3 32 0 39 -32 10 -48 53 -84 91 -76 16 3 41 15 55 26 32 25 84 26 106 2 39
-43 54 -169 63 -522 l7 -235 -27 -24 c-37 -35 -36 -89 4 -134 26 -30 30 -43
30 -91 0 -56 0 -56 30 -56 30 0 30 0 30 59 0 51 4 62 30 89 40 42 42 98 5 132
-24 23 -25 27 -25 159 0 169 17 461 30 533 6 29 18 64 29 78 24 34 75 38 112
11 65 -49 132 -26 148 49 7 32 10 35 39 32 68 -5 113 43 98 104 -8 29 8 54 33
54 26 0 61 43 61 73 0 15 -7 38 -15 51 -14 21 -13 25 20 59 42 43 45 74 9 117
l-27 31 28 29 c35 37 37 81 5 115 -22 23 -22 25 -6 49 34 53 17 106 -44 130
-44 17 -45 19 -29 65 13 38 -5 72 -52 96 -33 18 -37 50 -5 50 15 0 38 52 123
270 73 190 102 277 98 294 -14 57 -96 101 -162 87 l-29 -7 -71 -427 -71 -427
38 -70 c56 -103 80 -191 80 -292 0 -187 -82 -358 -201 -419 -82 -41 -146 -28
-180 39 -18 35 -20 58 -19 265 0 232 11 387 28 419 14 26 52 58 90 77 28 15
32 21 32 57 0 32 -6 47 -29 69 -59 54 -213 76 -319 45 -76 -23 -104 -51 -109
-111 -5 -49 -5 -49 29 -62 46 -16 87 -61 100 -108 5 -22 12 -166 15 -321 5
-273 5 -283 -16 -326 -34 -69 -96 -86 -178 -46 -117 57 -204 233 -204 414 0
112 15 170 71 279 l49 95 -24 128 c-13 70 -44 259 -70 418 -34 214 -51 293
-63 303 -23 17 -72 15 -112 -6z"/>
<path d="M2869 3569 c-7 -19 -49 -81 -92 -139 -118 -157 -147 -235 -117 -314
8 -23 15 -26 58 -26 46 0 134 -13 175 -26 23 -7 56 65 57 123 0 41 -24 130
-40 146 -15 16 -65 -85 -65 -132 0 -51 -22 -74 -49 -52 -28 23 -19 72 30 155
58 100 74 145 74 215 0 73 -12 93 -31 50z"/>
<path d="M1931 3549 c-32 -14 -46 -28 -61 -61 -10 -23 -16 -47 -13 -53 16 -26
287 -451 294 -459 8 -9 48 30 49 48 0 21 -204 535 -215 540 -7 2 -31 -4 -54
-15z"/>
<path d="M3492 3561 c-11 -7 -212 -516 -212 -535 1 -13 39 -60 44 -55 26 26
296 465 296 480 0 29 -25 74 -52 91 -30 19 -63 27 -76 19z"/>
<path d="M8032 3093 l3 -438 90 0 90 0 3 238 c1 143 6 237 12 235 5 -2 91 -82
192 -179 101 -96 216 -206 256 -243 l72 -68 0 441 0 441 -90 0 -90 0 0 -240
c0 -132 -3 -240 -7 -240 -5 0 -123 110 -263 245 -140 135 -258 245 -263 245
-4 0 -6 -197 -5 -437z"/>
<path d="M4640 3440 l0 -80 120 0 120 0 0 -355 0 -356 93 3 92 3 0 353 0 352
123 0 122 0 0 80 0 80 -335 0 -335 0 0 -80z"/>
<path d="M5420 3205 c0 -359 5 -386 81 -465 64 -65 135 -93 251 -98 178 -8
303 55 359 180 23 52 24 60 27 376 l3 322 -95 0 -96 0 0 -295 c0 -279 -1 -298
-21 -336 -53 -104 -243 -103 -304 1 -19 33 -20 56 -23 333 l-4 297 -89 0 -89
0 0 -315z"/>
<path d="M6332 3088 l3 -433 68 -3 c123 -6 117 -15 117 153 l0 145 25 1 c14 1
32 2 40 2 53 0 54 -1 130 -153 l75 -150 95 0 c54 0 95 4 95 10 0 5 -38 79 -85
165 -47 86 -85 158 -85 159 0 2 19 15 43 30 139 89 158 300 38 417 -76 73
-111 82 -354 87 l-207 4 2 -434z m384 256 c60 -29 82 -110 49 -174 -24 -46
-62 -60 -160 -60 l-85 0 0 125 0 125 81 0 c54 0 92 -5 115 -16z"/>
<path d="M7120 3210 c0 -291 1 -313 21 -367 32 -87 106 -155 199 -184 100 -30
240 -25 321 13 68 31 124 86 153 147 20 43 21 64 24 374 l3 327 -96 0 -95 0 0
-296 c1 -265 -1 -299 -17 -332 -52 -106 -249 -108 -302 -3 -20 38 -21 57 -21
336 l0 295 -95 0 -95 0 0 -310z"/>
<path d="M1761 3374 c-32 -26 -56 -91 -47 -122 3 -9 77 -85 163 -168 225 -214
238 -225 257 -218 9 4 16 12 14 19 -2 6 -75 125 -163 263 -103 161 -166 251
-177 252 -9 0 -30 -12 -47 -26z"/>
<path d="M3495 3148 c-88 -139 -161 -257 -163 -264 -2 -6 5 -14 14 -18 19 -7
33 5 273 236 l153 147 -7 38 c-11 59 -58 114 -97 113 -7 0 -85 -114 -173 -252z"/>
<path d="M1641 3174 c-34 -28 -53 -82 -45 -123 5 -22 26 -39 107 -86 56 -32
160 -92 230 -133 70 -41 129 -73 131 -71 2 2 7 18 10 35 6 29 -2 38 -190 217
-108 103 -200 187 -204 187 -5 0 -22 -12 -39 -26z"/>
<path d="M3595 3013 c-187 -179 -195 -188 -189 -218 3 -16 8 -32 10 -34 3 -3
323 179 410 235 58 36 68 62 48 121 -13 36 -54 83 -74 83 -5 0 -98 -84 -205
-187z"/>
<path d="M1553 2958 c-12 -13 -26 -35 -32 -49 -11 -31 -5 -89 12 -105 12 -12
494 -154 521 -154 8 0 20 8 25 19 9 16 -4 27 -117 91 -70 40 -179 104 -243
141 -63 38 -122 71 -130 74 -8 3 -24 -4 -36 -17z"/>
<path d="M3643 2834 c-227 -131 -251 -148 -242 -165 5 -11 17 -19 27 -19 9 0
129 33 267 74 246 72 249 73 262 105 10 24 11 42 4 68 -9 33 -46 83 -60 83 -3
0 -120 -66 -258 -146z"/>
<path d="M1515 2730 c-24 -27 -30 -89 -12 -133 16 -37 16 -37 79 -38 35 -1 74
-3 88 -4 14 -2 106 -6 205 -10 99 -4 184 -9 188 -12 9 -5 -2 48 -12 59 -3 3
-109 37 -236 73 -126 37 -242 71 -257 75 -20 6 -31 4 -43 -10z"/>
<path d="M3690 2674 c-140 -42 -258 -79 -261 -82 -4 -4 -9 -18 -12 -32 l-6
-25 142 7 c391 18 402 19 414 36 30 38 28 112 -4 150 l-18 21 -255 -75z"/>
<path d="M1511 2492 c-23 -43 -6 -118 32 -151 12 -10 64 -3 263 34 137 26 249
47 250 48 0 1 6 17 12 35 l11 32 -72 2 c-40 0 -83 2 -97 3 -14 1 -107 6 -207
10 -176 7 -181 7 -192 -13z"/>
<path d="M3580 2498 c-96 -6 -176 -11 -178 -12 -4 -5 20 -66 26 -66 7 0 109
-19 355 -65 151 -28 155 -28 183 26 16 33 18 82 4 110 -10 17 -21 19 -113 17
-56 0 -181 -5 -277 -10z"/>
<path d="M1825 2331 c-132 -25 -246 -50 -252 -54 -29 -19 -4 -115 35 -136 13
-7 76 15 255 87 130 54 237 99 237 102 0 3 -8 14 -18 26 l-17 21 -240 -46z"/>
<path d="M3394 2353 c-8 -14 -14 -26 -12 -27 2 -2 108 -46 237 -99 182 -74
238 -94 253 -86 39 21 64 114 36 137 -7 5 -56 17 -108 26 -52 9 -161 29 -242
45 l-148 28 -16 -24z"/>
<path d="M6845 2370 c-226 -48 -366 -218 -367 -445 0 -134 47 -241 145 -332
90 -83 195 -118 331 -110 149 8 243 55 332 164 58 71 86 149 92 254 11 206
-100 377 -290 447 -64 24 -184 35 -243 22z m180 -184 c63 -27 104 -66 136
-132 29 -59 31 -70 27 -141 -5 -86 -22 -129 -72 -181 -110 -117 -313 -104
-399 26 -35 54 -49 106 -48 179 2 154 109 263 258 263 35 0 79 -7 98 -14z"/>
<path d="M8843 2370 c-71 -15 -126 -45 -166 -89 -49 -54 -59 -81 -59 -161 -1
-137 56 -197 268 -279 98 -38 137 -74 132 -122 -2 -27 -10 -37 -38 -51 -66
-34 -218 -21 -332 27 -16 6 -18 -1 -18 -82 l0 -89 58 -19 c34 -11 100 -20 164
-23 93 -4 118 -1 178 18 124 40 190 137 174 256 -14 108 -83 177 -242 240
-148 58 -196 121 -138 179 13 13 41 27 61 31 57 10 169 -2 221 -25 26 -12 48
-21 49 -21 2 0 2 39 1 87 l-1 87 -56 17 c-70 21 -200 31 -256 19z"/>
<path d="M10353 2365 c-127 -28 -250 -121 -302 -227 -123 -257 -4 -553 257
-637 60 -20 87 -23 169 -19 88 3 106 7 176 40 136 65 221 177 248 328 39 223
-103 452 -316 509 -68 18 -167 20 -232 6z m200 -180 c53 -22 105 -72 135 -129
22 -42 26 -64 26 -131 1 -70 -3 -87 -29 -135 -103 -188 -366 -186 -462 3 -71
140 -16 319 119 386 52 25 158 29 211 6z"/>
<path d="M4600 2356 c0 -2 70 -121 155 -265 l155 -261 0 -171 0 -170 93 3 92
3 5 175 5 175 153 254 c83 139 152 255 152 257 0 2 -47 4 -104 4 l-105 0 -57
-102 c-31 -57 -76 -136 -99 -175 l-41 -73 -98 175 -98 175 -104 0 c-57 0 -104
-2 -104 -4z"/>
<path d="M5492 1928 l3 -433 258 -3 257 -3 0 81 0 80 -165 0 -165 0 0 355 0
355 -95 0 -95 0 2 -432z"/>
<path d="M6142 1928 l3 -433 90 0 90 0 3 433 2 432 -95 0 -95 0 2 -432z"/>
<path d="M7530 1926 l0 -437 93 3 92 3 3 148 3 147 83 0 c219 0 339 102 339
287 0 124 -51 201 -169 255 -45 21 -67 23 -246 26 l-198 4 0 -436z m367 254
c41 -25 56 -53 56 -108 0 -48 -24 -89 -64 -109 -13 -7 -57 -13 -96 -13 l-73 0
0 125 0 125 73 0 c54 0 80 -5 104 -20z"/>
<path d="M8280 1926 l0 -433 90 -2 90 -2 0 435 0 436 -90 0 -90 0 0 -434z"/>
<path d="M9260 2296 c0 -100 -6 -96 131 -96 l119 0 0 -355 0 -356 93 3 92 3 3
353 2 352 114 0 c131 0 126 -4 126 96 l0 64 -340 0 -340 0 0 -64z"/>
<path d="M1915 2199 c-93 -38 -190 -78 -215 -89 -37 -15 -46 -24 -48 -47 -3
-31 27 -86 56 -102 15 -8 36 2 108 48 49 32 136 88 192 125 76 49 102 71 98
82 -3 9 -6 24 -6 35 0 10 -3 19 -7 19 -5 0 -84 -32 -178 -71z"/>
<path d="M3377 2238 c-3 -18 -1 -37 3 -42 5 -5 91 -62 191 -127 196 -126 200
-128 235 -73 9 13 17 41 18 60 l1 35 -205 84 c-261 108 -237 102 -243 63z"/>
<path d="M1995 2069 c-77 -50 -161 -105 -187 -121 -34 -21 -48 -36 -48 -52 0
-29 25 -63 60 -81 l29 -15 171 162 c93 89 170 165 170 169 0 4 -8 9 -17 13
-10 3 -23 8 -28 11 -6 3 -73 -36 -150 -86z"/>
<path d="M3313 2148 c-13 -6 -23 -14 -23 -18 0 -3 77 -79 170 -169 l171 -162
32 18 c40 23 73 82 54 99 -18 16 -355 234 -370 239 -6 2 -22 -1 -34 -7z"/>
<path d="M2044 1920 c-82 -78 -150 -147 -152 -153 -4 -18 48 -64 79 -72 25 -6
33 2 126 137 137 196 129 181 111 207 -16 22 -18 21 -164 -119z"/>
<path d="M3270 2035 c-12 -22 -5 -34 97 -182 100 -144 112 -158 138 -156 27 2
85 47 85 66 0 9 -238 242 -284 278 -23 18 -23 18 -36 -6z"/>
<path d="M2206 1905 c-30 -44 -80 -118 -112 -163 l-59 -84 33 -29 c44 -40 94
-40 112 -1 44 95 150 336 150 342 0 4 -16 10 -35 12 -34 4 -36 1 -89 -77z"/>
<path d="M3195 1980 c-11 -4 -26 -5 -32 -3 -7 3 -13 0 -13 -6 0 -20 153 -356
167 -368 28 -22 131 31 120 62 -4 8 -214 316 -221 321 0 1 -10 -2 -21 -6z"/>
<path d="M2324 1833 c-19 -43 -54 -120 -77 -172 l-41 -94 23 -18 c23 -19 95
-26 105 -11 2 4 19 75 36 157 17 83 32 157 35 165 2 8 -7 23 -20 33 l-25 18
-36 -78z"/>
<path d="M3093 1891 l-21 -18 36 -171 35 -172 43 0 c26 0 50 7 65 19 l23 18
-73 164 c-41 90 -76 167 -80 171 -3 4 -16 -1 -28 -11z"/>
<path d="M2485 1871 c-29 -6 -30 -6 -65 -174 l-36 -168 29 -16 c19 -9 41 -13
62 -9 l33 7 6 107 c13 230 14 262 8 261 -4 -1 -20 -4 -37 -8z"/>
<path d="M2956 1778 c3 -57 7 -140 10 -185 5 -76 7 -82 31 -88 14 -3 40 -1 59
5 42 14 42 14 1 204 -25 112 -37 150 -49 152 -8 1 -25 5 -36 8 -19 6 -20 3
-16 -96z"/>
</g>
</svg>
